<svg width="15" height="15" xmlns="http://www.w3.org/2000/svg">
                      <style type="text/css">.st0{fill:#D80027;}
                       .st1{fill:#FFDA44;}</style>
                        <circle class="st0" cx="7.5" cy="7.5" r="7.375"/>
                         <polygon class="st1" points="4.189892277121544,4.670997202396393 4.826562866568565,6.629982054233551 6.886377319693565,6.629982054233551 5.221239551901817,7.842824995517731 5.857910618185997,9.80180937051773 4.189892277121544,8.59184843301773 2.52187417447567,9.80180937051773 3.1614253371953964,7.842824995517731 1.4934072345495224,6.629982054233551 3.5532221645116806,6.629982054233551 " />
                         <polygon class="st1" points="8.897218689322472,11.605229437351227 8.410353645682335,11.006011068820953 7.690136894583702,11.285452902317047 8.107862934470177,10.63725858926773 7.620997413992882,10.03516012430191 8.367140755057335,10.23393827676773 8.787744507193565,9.58574491739273 8.828078255057335,10.357817709445953 9.577101692557335,10.55659681558609 8.854003891348839,10.833159506320953 "/>
                         <polygon class="st1" points="9.865187630057335,9.84790426492691 10.095656380057335,9.11040312051773 9.464748367667198,8.66386991739273 10.236818298697472,8.65234762430191 10.464405998587608,7.914846479892731 10.715041145682335,8.646583616733551 11.487111076712608,8.63794332742691 10.867726311087608,9.09888082742691 11.115480408072472,9.83061796426773 10.484572395682335,9.38408476114273 "/>
                         <polygon class="st1" points="11.170216545462608,5.595753729343414 10.830275520682335,6.290041983127594 11.383399948477745,6.828764498233795 10.619970306754112,6.7192893624305725 10.280031189322472,7.410696089267731 10.147511467337608,6.650149405002594 9.381200775504112,6.540678560733795 10.066847786307335,6.180571138858795 9.934328064322472,5.417142927646637 10.487453445792198,5.9558616280555725 " />
                         <polygon class="st1" points="8.917383179068565,3.492726147174835 8.859765991568565,4.2619176506996155 9.577101692557335,4.552884638309479 8.825195297598839,4.7372594475746155 8.770461067557335,5.509327948093414 8.364257797598839,4.8524938225746155 7.612353786826134,5.036867678165436 8.110742077231407,4.446291506290436 7.701660141348839,3.792335093021393 8.418993934988976,4.083302557468414 "/>
                     </svg>