<svg width="15" height="15" xmlns="http://www.w3.org/2000/svg">
                              <circle id="svg_1" fill="#F0F0F0" r="7.31988" cy="7.60067" cx="7.44266"/>
                               <path fill="#D80027" d="m7.12442,7.60068l7.63813,0c0,-0.66068 -0.08807,-1.30071 -0.25217,-1.90955l-7.38596,0l0,1.90955z"/>
                               <path fill="#D80027" d="m7.12442,3.78161l6.56376,0c-0.44808,-0.73119 -1.02101,-1.37748 -1.68901,-1.90955l-4.87475,0l0,1.90955z"/>
                               <path fill="#D80027" d="m7.44266,14.92056c1.72272,0 3.30613,-0.59543 4.55651,-1.59127l-9.11302,0c1.25038,0.99585 2.83379,1.59127 4.55651,1.59127z"/>
                               <path fill="#D80027" d="m1.19714,11.41973l12.49103,0c0.35973,-0.58699 0.63872,-1.22862 0.8222,-1.90954l-14.13543,0c0.18348,0.68092 0.46247,1.32256 0.8222,1.90954z"/>
                              <path fill="#0052B4" d="m3.51349,1.42389l0.66705,0l-0.62048,0.45078l0.23701,0.72939l-0.62045,-0.45078l-0.62045,0.45078l0.20473,-0.63011c-0.5463,0.45506 -1.02513,0.98822 -1.41971,1.58227l0.21373,0l-0.39496,0.28694c-0.06153,0.10265 -0.12055,0.20693 -0.17711,0.31275l0.1886,0.58047l-0.35187,-0.25565c-0.08747,0.18532 -0.16747,0.3748 -0.23938,0.56824l0.20779,0.63957l0.76693,0l-0.62047,0.45078l0.23701,0.72938l-0.62045,-0.45078l-0.37166,0.27004c-0.0372,0.29903 -0.05659,0.6036 -0.05659,0.91273l7.31988,0c0,-4.04263 0,-4.51923 0,-7.31988c-1.44602,0 -2.79399,0.41946 -3.92917,1.1431zm0.28359,5.44479l-0.62045,-0.45078l-0.62045,0.45078l0.23701,-0.72938l-0.62047,-0.45078l0.76693,0l0.23698,-0.72939l0.23698,0.72939l0.76693,0l-0.62048,0.45078l0.23701,0.72938zm-0.23701,-2.8617l0.23701,0.72938l-0.62045,-0.45077l-0.62045,0.45077l0.23701,-0.72938l-0.62047,-0.45078l0.76693,0l0.23698,-0.72939l0.23698,0.72939l0.76693,0l-0.62048,0.45078zm2.86262,2.8617l-0.62045,-0.45078l-0.62045,0.45078l0.23701,-0.72938l-0.62047,-0.45078l0.76693,0l0.23698,-0.72939l0.23698,0.72939l0.76693,0l-0.62047,0.45078l0.23701,0.72938zm-0.23701,-2.8617l0.23701,0.72938l-0.62045,-0.45077l-0.62045,0.45077l0.23701,-0.72938l-0.62047,-0.45078l0.76693,0l0.23698,-0.72939l0.23698,0.72939l0.76693,0l-0.62047,0.45078zm0,-2.13232l0.23701,0.72939l-0.62045,-0.45078l-0.62045,0.45078l0.23701,-0.72939l-0.62047,-0.45078l0.76693,0l0.23698,-0.72938l0.23698,0.72938l0.76693,0l-0.62047,0.45078z"/>
                           </svg>